<?xml version="1.0" encoding="UTF-8" standalone="no"?>
<!-- Created with Inkscape (http://www.inkscape.org/) -->

<svg
   version="1.1"
   id="svg1854"
   xml:space="preserve"
   width="682.66669"
   height="682.66669"
   viewBox="0 0 682.66669 682.66669"
   xmlns="http://www.w3.org/2000/svg"
   xmlns:svg="http://www.w3.org/2000/svg"><defs
     id="defs1858"><clipPath
       clipPathUnits="userSpaceOnUse"
       id="clipPath1868"><path
         d="M 0,512 H 512 V 0 H 0 Z"
         id="path1866" /></clipPath></defs><g
     id="g1860"
     transform="matrix(1.3333333,0,0,-1.3333333,0,682.66667)"><g
       id="g1862"><g
         id="g1864"
         clip-path="url(#clipPath1868)"><g
           id="g1870"
           transform="translate(290.0898,484.9375)"><path
             d="m 0,0 4.927,-6.583 c 8.885,-11.873 24.741,-16.121 38.371,-10.282 l 7.558,3.238 c 26.127,11.193 55.675,-5.867 59.045,-34.089 l 0.975,-8.165 c 1.759,-14.724 13.366,-26.332 28.091,-28.09 l 8.164,-0.975 c 28.223,-3.37 45.282,-32.919 34.09,-59.045 l -3.239,-7.558 c -5.838,-13.631 -1.589,-29.488 10.283,-38.372 l 6.583,-4.927 c 22.756,-17.03 22.756,-51.15 0,-68.179 l -6.583,-4.927 c -11.872,-8.885 -16.121,-24.741 -10.283,-38.372 l 3.239,-7.558 c 11.192,-26.126 -5.867,-55.675 -34.09,-59.045 l -8.164,-0.975 c -14.725,-1.758 -26.332,-13.366 -28.091,-28.09 l -0.975,-8.165 c -3.37,-28.222 -32.918,-45.282 -59.045,-34.089 l -7.558,3.238 c -13.63,5.839 -29.486,1.591 -38.371,-10.282 L 0,-457.875 c -17.03,-22.756 -51.149,-22.756 -68.18,0 l -4.926,6.583 c -8.885,11.873 -24.742,16.121 -38.372,10.282 l -7.558,-3.238 c -26.127,-11.193 -55.675,5.867 -59.045,34.089 l -0.975,8.165 c -1.758,14.724 -13.366,26.332 -28.09,28.09 l -8.165,0.975 c -28.222,3.37 -45.282,32.919 -34.089,59.045 l 3.238,7.558 c 5.839,13.631 1.59,29.488 -10.282,38.372 l -6.583,4.927 c -22.757,17.03 -22.757,51.15 0,68.179 l 6.583,4.927 c 11.872,8.885 16.121,24.741 10.282,38.372 l -3.238,7.558 c -11.193,26.126 5.867,55.675 34.089,59.045 l 8.165,0.975 c 14.724,1.758 26.332,13.366 28.09,28.09 l 0.975,8.165 c 3.37,28.222 32.919,45.282 59.045,34.089 l 7.558,-3.238 c 13.63,-5.839 29.487,-1.591 38.372,10.282 L -68.18,0 C -51.149,22.756 -17.03,22.756 0,0 Z"
             style="fill:none;stroke:#000000;stroke-width:20;stroke-linecap:round;stroke-linejoin:round;stroke-miterlimit:10;stroke-dasharray:none;stroke-opacity:1"
             id="path1872" /></g><g
           id="g1874"
           transform="translate(174.2559,425.2163)"><path
             d="m 0,0 c 24.714,11.961 52.446,18.667 81.744,18.667 103.766,0 187.884,-84.118 187.884,-187.883 C 269.627,-272.981 185.509,-357.1 81.744,-357.1 c -103.765,0 -187.884,84.119 -187.884,187.884 0,43.684 14.91,83.886 39.916,115.796"
             style="fill:none;stroke:#000000;stroke-width:20;stroke-linecap:round;stroke-linejoin:round;stroke-miterlimit:10;stroke-dasharray:none;stroke-opacity:1"
             id="path1876" /></g><g
           id="g1878"
           transform="translate(110.0371,291.0337)"><path
             d="M 0,0 7.617,9.712 H 22.049 V -76.982"
             style="fill:none;stroke:#000000;stroke-width:20;stroke-linecap:round;stroke-linejoin:round;stroke-miterlimit:10;stroke-dasharray:none;stroke-opacity:1"
             id="path1880" /></g><g
           id="g1882"
           transform="translate(115.3906,214.0513)"><path
             d="M 0,0 H 33.047"
             style="fill:none;stroke:#000000;stroke-width:20;stroke-linecap:round;stroke-linejoin:round;stroke-miterlimit:10;stroke-dasharray:none;stroke-opacity:1"
             id="path1884" /></g><g
           id="g1886"
           transform="translate(195.3418,214.0513)"><path
             d="m 0,0 h -5.193 c -11.02,0 -19.952,8.933 -19.952,19.951 v 48.474 c 0,11.019 8.932,19.951 19.952,19.951 H 0 c 11.019,0 19.951,-8.932 19.951,-19.951 V 19.951 C 19.951,8.933 11.019,0 0,0 Z"
             style="fill:none;stroke:#000000;stroke-width:20;stroke-linecap:round;stroke-linejoin:round;stroke-miterlimit:10;stroke-dasharray:none;stroke-opacity:1"
             id="path1888" /></g><g
           id="g1890"
           transform="translate(270.7383,214.0513)"><path
             d="m 0,0 h -5.194 c -11.019,0 -19.952,8.933 -19.952,19.951 v 48.474 c 0,11.019 8.933,19.951 19.952,19.951 H 0 c 11.019,0 19.951,-8.932 19.951,-19.951 V 19.951 C 19.951,8.933 11.019,0 0,0 Z"
             style="fill:none;stroke:#000000;stroke-width:20;stroke-linecap:round;stroke-linejoin:round;stroke-miterlimit:10;stroke-dasharray:none;stroke-opacity:1"
             id="path1892" /></g><g
           id="g1894"
           transform="translate(396.9229,305.5552)"><path
             d="M 0,0 -63.542,-87.38"
             style="fill:none;stroke:#000000;stroke-width:20;stroke-linecap:round;stroke-linejoin:round;stroke-miterlimit:10;stroke-dasharray:none;stroke-opacity:1"
             id="path1896" /></g><g
           id="g1898"
           transform="translate(165.9219,361.7256)"><path
             d="m 0,0 c 24.084,21.03 55.593,33.77 90.078,33.77 31.924,0 61.298,-10.918 84.592,-29.224"
             style="fill:none;stroke:#000000;stroke-width:20;stroke-linecap:round;stroke-linejoin:round;stroke-miterlimit:10;stroke-dasharray:none;stroke-opacity:1"
             id="path1900" /></g><g
           id="g1902"
           transform="translate(316.0771,135.8677)"><path
             d="m 0,0 c -18.425,-9.217 -39.217,-14.404 -61.221,-14.404 -31.924,0 -61.298,10.918 -84.591,29.223"
             style="fill:none;stroke:#000000;stroke-width:20;stroke-linecap:round;stroke-linejoin:round;stroke-miterlimit:10;stroke-dasharray:none;stroke-opacity:1"
             id="path1904" /></g><g
           id="g1906"
           transform="translate(345.8896,154.375)"><path
             d="M 0,0 V 0"
             style="fill:none;stroke:#000000;stroke-width:20;stroke-linecap:round;stroke-linejoin:round;stroke-miterlimit:10;stroke-dasharray:none;stroke-opacity:1"
             id="path1908" /></g><g
           id="g1910"
           transform="translate(350.7568,292.0215)"><path
             d="m 0,0 c 0,-7.475 -6.06,-13.534 -13.534,-13.534 -7.474,0 -13.533,6.059 -13.533,13.534 0,7.475 6.059,13.534 13.533,13.534 C -6.06,13.534 0,7.475 0,0 Z"
             style="fill:none;stroke:#000000;stroke-width:20;stroke-linecap:round;stroke-linejoin:round;stroke-miterlimit:10;stroke-dasharray:none;stroke-opacity:1"
             id="path1912" /></g><g
           id="g1914"
           transform="translate(406.2617,231.0757)"><path
             d="m 0,0 c 0,-7.475 -6.06,-13.534 -13.534,-13.534 -7.475,0 -13.534,6.059 -13.534,13.534 0,7.475 6.059,13.534 13.534,13.534 C -6.06,13.534 0,7.475 0,0 Z"
             style="fill:none;stroke:#000000;stroke-width:20;stroke-linecap:round;stroke-linejoin:round;stroke-miterlimit:10;stroke-dasharray:none;stroke-opacity:1"
             id="path1916" /></g><g
           id="g1918"
           transform="translate(138.7002,402.3784)"><path
             d="M 0,0 V 0"
             style="fill:none;stroke:#000000;stroke-width:20;stroke-linecap:round;stroke-linejoin:round;stroke-miterlimit:10;stroke-dasharray:none;stroke-opacity:1"
             id="path1920" /></g></g></g></g></svg>
