<svg id="Layer_1" enable-background="new 0 0 512 512" height="512" viewBox="0 0 512 512" width="512" xmlns="http://www.w3.org/2000/svg"><path d="m256 426.857c-15.208 0-27.582 12.373-27.582 27.581 0 15.209 12.373 27.582 27.582 27.582 15.208 0 27.581-12.373 27.581-27.582 0-15.208-12.373-27.581-27.581-27.581zm0 43.164c-8.592 0-15.582-6.99-15.582-15.582s6.99-15.581 15.582-15.581c8.591 0 15.581 6.989 15.581 15.581s-6.989 15.582-15.581 15.582zm145.104-170.146-39.183-17.279c7.583-3.052 14.168-6.165 19.43-9.203 17.476-10.089 24.471-29.897 16.633-47.098-3.196-7.014-6.554-13.015-9.802-18.818-10.939-19.548-20.386-36.43-18.461-83.507.003-.082.005-.164.005-.245-.001-62.708-51.017-113.725-113.725-113.725-62.709 0-113.727 51.017-113.727 113.724 0 .082.002.164.005.245 1.925 47.078-7.522 63.96-18.461 83.508-3.248 5.803-6.605 11.804-9.801 18.818-7.836 17.202-.841 37.009 16.633 47.098 5.252 3.032 11.847 6.148 19.433 9.202l-39.187 17.281c-31.642 13.954-51.299 44.106-51.299 78.688v117.436c0 3.313 2.687 6 6 6h380.805c3.313 0 6-2.687 6-6v-117.437c.001-34.583-19.656-64.734-51.298-78.688zm-85.569 57.665 14.127 14.128-9.809 11.408h-23.891l38.324-95.498 26.384 31.84-44.174 28.856c-1.513.988-2.5 2.606-2.687 4.404s.449 3.585 1.726 4.862zm69.259 52.84-7.447 79.62h-242.695l-7.446-79.62c-.375-4.006.889-7.827 3.559-10.758 2.67-2.932 6.356-4.546 10.38-4.546h229.709c4.024 0 7.71 1.614 10.38 4.546 2.671 2.931 3.935 6.752 3.56 10.758zm-202.457-38.712 14.128-14.128c1.278-1.277 1.912-3.063 1.725-4.861s-1.173-3.416-2.687-4.404l-44.174-28.856 26.383-31.84 38.324 95.498h-23.891zm143.023-204.479c0 2.065-.108 4.104-.286 6.124-13.144 22.337-40.525 29.138-54.127 30.307-2.437-5.859-8.216-9.992-14.947-9.992-8.924 0-16.184 7.26-16.184 16.184s7.26 16.184 16.184 16.184c6.867 0 12.734-4.307 15.081-10.356 11.343-.845 30.571-4.95 46.562-16.717-11.539 22.322-34.83 37.626-61.643 37.626-38.246 0-69.36-31.115-69.36-69.36v-28.102c29.687-1.475 68.725-13.708 93.234-38.535 1.162 1.215 2.351 2.471 3.57 3.758 11.642 12.293 25.888 27.338 41.917 33.319v29.56zm-65.176 42.623c0 2.307-1.877 4.184-4.184 4.184s-4.184-1.877-4.184-4.184 1.877-4.184 4.184-4.184 4.184 1.877 4.184 4.184zm-44.723 27.873c11.945 6.896 25.783 10.864 40.539 10.864s28.594-3.969 40.539-10.865l.243 1.003c4.108 16.945 13.986 30.773 28.205 39.844l-13.078 32.589c-37.117 8.519-74.701 8.519-111.818 0l-13.078-32.588c14.219-9.071 24.097-22.899 28.205-39.844zm13.507 145.391-23.481-58.509c16.785 3.314 33.649 4.973 50.513 4.973s33.728-1.659 50.513-4.973l-23.48 58.509zm-92.318-120.076c-12.005-6.931-16.932-20.276-11.713-31.73 2.99-6.562 6.225-12.343 9.353-17.933 11.327-20.241 22.026-39.355 19.984-89.734.067-56.034 45.675-101.603 101.727-101.603 56.05 0 101.658 45.569 101.725 101.604-2.042 50.377 8.658 69.492 19.985 89.732 3.128 5.59 6.363 11.371 9.354 17.934 5.219 11.454.293 24.799-11.713 31.73-7.188 4.15-17.231 8.513-29.142 12.666l-7.074-3.119c-15.967-7.041-26.58-19.727-30.691-36.686l-1.319-5.444c18.427-14.928 30.235-37.721 30.235-63.229v-33.948c0-2.739-1.855-5.13-4.508-5.812-14.519-3.727-28.426-18.413-40.696-31.37-2.85-3.009-5.541-5.851-8.163-8.473-1.183-1.183-2.812-1.822-4.476-1.753-1.671.065-3.239.825-4.327 2.096-22.071 25.808-64.272 39.311-94.552 39.311-3.313 0-6 2.687-6 6v33.949c0 25.508 11.809 48.301 30.236 63.229l-1.32 5.443c-4.111 16.96-14.724 29.646-30.69 36.687l-7.072 3.119c-11.907-4.154-21.97-8.525-29.143-12.666zm-65.053 115.563c0-30.208 16.501-55.52 44.141-67.708l42.71-18.835-20.647 24.917c-1.09 1.316-1.568 3.035-1.312 4.726.256 1.689 1.22 3.19 2.651 4.126l43.615 28.491-12.838 12.838c-2.219 2.219-2.353 5.774-.307 8.154l6.71 7.804h-35.175c-7.334 0-14.352 3.086-19.251 8.465-4.9 5.38-7.318 12.653-6.635 19.956l7.341 78.503h-51.003zm368.806 111.437h-51.003l7.342-78.503c.683-7.303-1.736-14.576-6.636-19.956-4.9-5.379-11.917-8.465-19.251-8.465h-35.175l6.71-7.804c2.046-2.38 1.913-5.936-.307-8.154l-12.837-12.838 43.615-28.491c1.431-.936 2.396-2.437 2.651-4.126.255-1.69-.222-3.409-1.312-4.726l-20.647-24.917 42.709 18.835c27.64 12.188 44.141 37.5 44.141 67.708z"/></svg>