<?xml version="1.0" encoding="UTF-8"?>
<svg xmlns="http://www.w3.org/2000/svg" id="Layer_3" data-name="Layer 3" viewBox="0 0 64 64" width="512" height="512"><path d="M62.819,38.427l-7-10a1,1,0,0,0-.5-.374l-7.44-2.588a1,1,0,0,0-.024-.98l-2.485-4.142,4.143-2.486a1,1,0,0,0,0-1.714l-4.143-2.486,2.485-4.142A1,1,0,0,0,47,8H42V4a1,1,0,0,0-1.371-.929L36.241,4.826,32.707,1.293a1,1,0,0,0-1.414,0L27.759,4.826,23.371,3.071A1,1,0,0,0,22,4V8H17a1,1,0,0,0-.857,1.515l2.485,4.142-4.143,2.486a1,1,0,0,0,0,1.714l4.143,2.486-2.485,4.142a1,1,0,0,0-.024.98L8.677,28.054a1,1,0,0,0-.5.373l-7,10a1,1,0,0,0,.491,1.517L8,42.145V55a1,1,0,0,0,.709.957l23,7a1.006,1.006,0,0,0,.582,0l23-7A1,1,0,0,0,56,55V42.145l6.328-2.2a1,1,0,0,0,.491-1.517ZM32,34.954,12.226,28.936,20.667,26H22v4a1,1,0,0,0,1.371.929l4.388-1.755,3.534,3.533a1,1,0,0,0,1.414,0l3.534-3.533,4.388,1.755A1,1,0,0,0,42,30V26h1.333l8.441,2.936ZM16.943,17l3.572-2.143a1,1,0,0,0,.342-1.372L18.767,10H23a1,1,0,0,0,1-1V5.477l3.629,1.452a1,1,0,0,0,1.078-.222L32,3.414l3.293,3.293a1,1,0,0,0,1.078.222L40,5.477V9a1,1,0,0,0,1,1h4.233l-2.09,3.485a1,1,0,0,0,.342,1.372L47.057,17l-3.572,2.143a1,1,0,0,0-.342,1.372L45.233,24H41a1,1,0,0,0-1,1v3.523l-3.629-1.452a1,1,0,0,0-1.078.222L32,30.586l-3.293-3.293a1,1,0,0,0-1.078-.222L24,28.523V25a1,1,0,0,0-1-1H18.767l2.09-3.485a1,1,0,0,0-.342-1.372ZM9.4,30.168,30.45,36.573,24.581,45.8l-21-7.306ZM10,42.841l14.672,5.1A.983.983,0,0,0,25,48a1,1,0,0,0,.844-.463L31,39.434V60.651L10,54.259ZM54,54.259,33,60.651V39.434l5.156,8.1A1,1,0,0,0,39,48a.983.983,0,0,0,.328-.056L54,42.841ZM39.419,45.8,33.55,36.573,54.6,30.168l5.825,8.322Z"/><path d="M24,16.3l2.168,3.252A1,1,0,0,0,28,19V12H26v3.7l-2.168-3.252A1,1,0,0,0,22,13v7h2Z"/><path d="M30,20h3V18H31V17h1V15H31V14h2V12H30a1,1,0,0,0-1,1v6A1,1,0,0,0,30,20Z"/><path d="M35,20h6a1,1,0,0,0,1-1V12H40v6H39V15H37v3H36V12H34v7A1,1,0,0,0,35,20Z"/></svg>
