<?xml version="1.0" standalone="no"?>
<!DOCTYPE svg PUBLIC "-//W3C//DTD SVG 20010904//EN"
 "http://www.w3.org/TR/2001/REC-SVG-20010904/DTD/svg10.dtd">
<svg version="1.0" xmlns="http://www.w3.org/2000/svg"
 width="512.000000pt" height="512.000000pt" viewBox="0 0 512.000000 512.000000"
 preserveAspectRatio="xMidYMid meet">

<g transform="translate(0.000000,512.000000) scale(0.100000,-0.100000)"
fill="#000000" stroke="none">
<path d="M837 4708 c-9 -7 -129 -163 -267 -347 l-250 -334 0 -1629 0 -1629 25
-24 24 -25 1321 0 1320 0 60 -55 c223 -205 555 -302 856 -250 230 40 419 140
579 307 89 92 132 152 182 253 150 302 149 640 -3 936 -58 112 -97 167 -185
257 -120 122 -265 211 -426 263 l-73 23 0 786 0 787 -250 334 c-138 184 -258
340 -267 347 -13 9 -294 12 -1323 12 -1029 0 -1310 -3 -1323 -12z m841 -388
l-60 -240 -529 0 -529 0 180 240 180 240 409 0 409 0 -60 -240z m800 0 l60
-240 -378 0 -378 0 60 240 60 240 258 0 258 0 60 -240z m1102 0 l180 -240
-529 0 -529 0 -60 240 -60 240 409 0 409 0 180 -240z m-1980 -855 l0 -456 25
-24 c42 -43 77 -34 151 37 l64 61 64 -61 c87 -83 105 -83 192 0 l64 61 64 -61
c51 -49 71 -62 96 -62 25 0 45 13 96 62 l64 61 64 -61 c74 -71 109 -80 151
-37 l25 24 0 456 0 455 560 0 560 0 0 -720 0 -720 -79 0 c-385 0 -752 -224
-924 -565 -156 -310 -155 -640 2 -952 l41 -83 -1200 0 -1200 0 0 1520 0 1520
560 0 560 0 0 -455z m960 114 l0 -340 -26 20 c-47 37 -78 28 -150 -41 l-64
-61 -64 61 c-87 83 -105 83 -192 0 l-64 -61 -64 61 c-72 69 -103 78 -150 41
l-26 -20 0 340 0 341 400 0 400 0 0 -341z m1355 -1275 c337 -58 606 -309 698
-649 29 -107 30 -316 3 -419 -88 -331 -321 -564 -652 -652 -104 -28 -312 -26
-421 4 -350 94 -602 376 -654 732 -63 435 223 862 651 970 132 34 241 38 375
14z"/>
<path d="M748 1903 c-54 -54 -101 -108 -105 -120 -19 -78 77 -130 140 -75 16
14 17 7 17 -142 0 -153 1 -157 25 -181 15 -16 36 -25 55 -25 19 0 40 9 55 25
24 24 25 28 25 180 l0 156 26 -20 c56 -44 134 -8 134 61 0 27 -15 47 -103 135
-137 137 -135 137 -269 6z"/>
<path d="M1388 1903 c-54 -54 -101 -108 -105 -120 -19 -78 77 -130 140 -75 16
14 17 7 17 -142 0 -153 1 -157 25 -181 15 -16 36 -25 55 -25 19 0 40 9 55 25
24 24 25 28 25 180 l0 156 26 -20 c56 -44 134 -8 134 61 0 27 -15 47 -103 135
-137 137 -135 137 -269 6z"/>
<path d="M665 1175 c-16 -15 -25 -36 -25 -55 0 -19 9 -40 25 -55 l24 -25 511
0 511 0 24 25 c16 15 25 36 25 55 0 19 -9 40 -25 55 l-24 25 -511 0 -511 0
-24 -25z"/>
<path d="M3392 1784 c-186 -139 -201 -156 -188 -208 9 -35 360 -296 398 -296
53 0 92 61 72 114 -3 9 -38 39 -77 68 l-71 53 228 3 c139 1 243 -2 267 -8 54
-15 115 -77 130 -132 23 -89 -12 -182 -88 -229 -34 -22 -52 -24 -191 -29 -147
-5 -155 -6 -173 -29 -27 -33 -24 -77 6 -107 26 -26 26 -26 183 -22 147 3 161
5 217 31 78 36 146 104 182 181 24 52 28 74 28 146 0 72 -4 94 -28 145 -36 78
-104 146 -181 182 -61 28 -62 28 -321 33 l-259 5 71 53 c39 29 74 59 77 68 12
32 5 66 -19 89 -45 46 -66 37 -263 -111z"/>
</g>
</svg>
